<svg viewBox="0 0 1100 1020" xmlns="http://www.w3.org/2000/svg" font-family="'Segoe UI', system-ui, -apple-system, sans-serif">
  <defs>
    <marker id="arrow" markerWidth="10" markerHeight="7" refX="9" refY="3.5" orient="auto">
      <polygon points="0 0, 10 3.5, 0 7" fill="#58a6ff"/>
    </marker>
    <marker id="arrow-gray" markerWidth="10" markerHeight="7" refX="9" refY="3.5" orient="auto">
      <polygon points="0 0, 10 3.5, 0 7" fill="#8b949e"/>
    </marker>
    <marker id="arrow-green" markerWidth="10" markerHeight="7" refX="9" refY="3.5" orient="auto">
      <polygon points="0 0, 10 3.5, 0 7" fill="#3fb950"/>
    </marker>
    <linearGradient id="bg-grad" x1="0%" y1="0%" x2="100%" y2="100%">
      <stop offset="0%" style="stop-color:#0d1117"/>
      <stop offset="100%" style="stop-color:#161b22"/>
    </linearGradient>
    <linearGradient id="researcher-grad" x1="0%" y1="0%" x2="100%" y2="0%">
      <stop offset="0%" style="stop-color:#1f6feb;stop-opacity:0.9"/>
      <stop offset="100%" style="stop-color:#388bfd;stop-opacity:0.7"/>
    </linearGradient>
    <linearGradient id="critic-grad" x1="0%" y1="0%" x2="100%" y2="0%">
      <stop offset="0%" style="stop-color:#e36209;stop-opacity:0.9"/>
      <stop offset="100%" style="stop-color:#f0883e;stop-opacity:0.7"/>
    </linearGradient>
    <linearGradient id="synth-grad" x1="0%" y1="0%" x2="100%" y2="0%">
      <stop offset="0%" style="stop-color:#238636;stop-opacity:0.9"/>
      <stop offset="100%" style="stop-color:#3fb950;stop-opacity:0.7"/>
    </linearGradient>
    <linearGradient id="validator-grad" x1="0%" y1="0%" x2="100%" y2="0%">
      <stop offset="0%" style="stop-color:#8957e5;stop-opacity:0.9"/>
      <stop offset="100%" style="stop-color:#a371f7;stop-opacity:0.7"/>
    </linearGradient>
    <linearGradient id="chroma-grad" x1="0%" y1="0%" x2="100%" y2="0%">
      <stop offset="0%" style="stop-color:#0d419d"/>
      <stop offset="100%" style="stop-color:#1f6feb;stop-opacity:0.8"/>
    </linearGradient>
    <linearGradient id="eval-grad" x1="0%" y1="0%" x2="100%" y2="0%">
      <stop offset="0%" style="stop-color:#da3633"/>
      <stop offset="100%" style="stop-color:#f85149;stop-opacity:0.8"/>
    </linearGradient>
    <filter id="shadow" x="-5%" y="-5%" width="110%" height="110%">
      <feDropShadow dx="0" dy="2" stdDeviation="3" flood-color="#000000" flood-opacity="0.4"/>
    </filter>
    <filter id="glow">
      <feGaussianBlur stdDeviation="2" result="coloredBlur"/>
      <feMerge>
        <feMergeNode in="coloredBlur"/>
        <feMergeNode in="SourceGraphic"/>
      </feMerge>
    </filter>
  </defs>

  <!-- Background -->
  <rect width="1100" height="1020" fill="url(#bg-grad)" rx="12"/>

  <!-- Outer border -->
  <rect x="4" y="4" width="1092" height="1012" fill="none" stroke="#30363d" stroke-width="1.5" rx="10"/>

  <!-- ══════════════════════ TITLE SECTION ══════════════════════ -->
  <rect x="0" y="0" width="1100" height="58" fill="#161b22" rx="10"/>
  <rect x="0" y="46" width="1100" height="12" fill="#161b22"/>
  <line x1="0" y1="58" x2="1100" y2="58" stroke="#30363d" stroke-width="1"/>

  <!-- Title accent bar -->
  <rect x="40" y="16" width="4" height="26" fill="#58a6ff" rx="2"/>
  <text x="54" y="27" fill="#e6edf3" font-size="16" font-weight="700" letter-spacing="0.5">SynapseIQ</text>
  <text x="150" y="27" fill="#8b949e" font-size="16" font-weight="400">— Multi-Agent Research Intelligence Pipeline</text>
  <text x="54" y="44" fill="#58a6ff" font-size="10" letter-spacing="1.5">AGENTIC WORKFLOW · RETRIEVAL-AUGMENTED GENERATION · SEQUENTIAL EXECUTION</text>

  <!-- Stage badges (right side of title) -->
  <rect x="780" y="14" width="72" height="18" fill="#1f6feb22" stroke="#1f6feb" stroke-width="1" rx="9"/>
  <text x="816" y="26.5" fill="#58a6ff" font-size="9" text-anchor="middle" font-weight="600">RESEARCH</text>
  <rect x="860" y="14" width="60" height="18" fill="#e3620922" stroke="#e36209" stroke-width="1" rx="9"/>
  <text x="890" y="26.5" fill="#f0883e" font-size="9" text-anchor="middle" font-weight="600">CRITIQUE</text>
  <rect x="928" y="14" width="70" height="18" fill="#23863622" stroke="#238636" stroke-width="1" rx="9"/>
  <text x="963" y="26.5" fill="#3fb950" font-size="9" text-anchor="middle" font-weight="600">SYNTHESIS</text>
  <rect x="1006" y="14" width="72" height="18" fill="#8957e522" stroke="#8957e5" stroke-width="1" rx="9"/>
  <text x="1042" y="26.5" fill="#a371f7" font-size="9" text-anchor="middle" font-weight="600">VALIDATE</text>

  <!-- ══════════════════════ ROW 1: INPUTS ══════════════════════ -->
  <!-- User Query -->
  <rect x="40" y="78" width="200" height="62" fill="#21262d" stroke="#58a6ff" stroke-width="1.5" rx="8" filter="url(#shadow)"/>
  <text x="60" y="98" fill="#58a6ff" font-size="9" font-weight="700" letter-spacing="1">USER INPUT</text>
  <text x="60" y="114" fill="#e6edf3" font-size="13" font-weight="600">Research Query</text>
  <text x="60" y="130" fill="#8b949e" font-size="10">output_format · citation_style</text>
  <!-- Query icon -->
  <circle cx="210" cy="100" r="10" fill="#58a6ff22" stroke="#58a6ff" stroke-width="1"/>
  <text x="210" y="104.5" fill="#58a6ff" font-size="11" text-anchor="middle">?</text>

  <!-- Session ID -->
  <rect x="260" y="90" width="130" height="38" fill="#161b22" stroke="#30363d" stroke-width="1" rx="6"/>
  <text x="325" y="106" fill="#8b949e" font-size="9" text-anchor="middle">session_id</text>
  <text x="325" y="120" fill="#58a6ff" font-size="9" text-anchor="middle" font-weight="600">uuid4 · auto-generated</text>

  <!-- Document Corpus -->
  <rect x="760" y="78" width="300" height="62" fill="#21262d" stroke="#0d419d" stroke-width="1.5" rx="8" filter="url(#shadow)"/>
  <text x="780" y="98" fill="#58a6ff" font-size="9" font-weight="700" letter-spacing="1">DOCUMENT CORPUS</text>
  <text x="780" y="114" fill="#e6edf3" font-size="13" font-weight="600">PDF · TXT · Markdown</text>
  <text x="780" y="130" fill="#8b949e" font-size="10">Pre-ingested via /ingest endpoint</text>
  <!-- Docs icon -->
  <rect x="1025" y="88" width="14" height="18" fill="none" stroke="#58a6ff" stroke-width="1.2" rx="2"/>
  <rect x="1020" y="84" width="14" height="18" fill="none" stroke="#58a6ff" stroke-width="1.2" rx="2"/>
  <rect x="1015" y="80" width="14" height="18" fill="#1f6feb33" stroke="#58a6ff" stroke-width="1.2" rx="2"/>
  <line x1="1018" y1="86" x2="1025" y2="86" stroke="#58a6ff" stroke-width="0.8"/>
  <line x1="1018" y1="90" x2="1025" y2="90" stroke="#58a6ff" stroke-width="0.8"/>

  <!-- ══════════════════════ ROW 2: CHROMADB ══════════════════════ -->
  <!-- Arrow from query to chroma -->
  <line x1="140" y1="140" x2="140" y2="168" stroke="#58a6ff" stroke-width="1.5" marker-end="url(#arrow)" stroke-dasharray="4,2"/>
  <!-- Arrow from corpus to chroma -->
  <line x1="910" y1="140" x2="910" y2="168" stroke="#58a6ff" stroke-width="1.5" marker-end="url(#arrow)" stroke-dasharray="4,2"/>

  <!-- ChromaDB box -->
  <rect x="80" y="170" width="980" height="72" fill="#0d1b3e" stroke="#1f6feb" stroke-width="1.5" rx="8" filter="url(#shadow)"/>
  <rect x="80" y="170" width="5" height="72" fill="#1f6feb" rx="3"/>

  <!-- Left label -->
  <text x="100" y="192" fill="#58a6ff" font-size="9" font-weight="700" letter-spacing="1.2">RETRIEVAL LAYER</text>
  <text x="100" y="210" fill="#e6edf3" font-size="14" font-weight="700">ChromaDB Vector Store</text>
  <text x="100" y="228" fill="#8b949e" font-size="10">Semantic search · Cosine similarity · Top-K chunk selection</text>

  <!-- Stats boxes -->
  <rect x="440" y="182" width="145" height="46" fill="#0d1117" stroke="#30363d" stroke-width="1" rx="6"/>
  <text x="512" y="200" fill="#8b949e" font-size="9" text-anchor="middle">Embedding Model</text>
  <text x="512" y="216" fill="#e6edf3" font-size="10" text-anchor="middle" font-weight="600">all-MiniLM-L6-v2</text>
  <text x="512" y="228" fill="#58a6ff" font-size="9" text-anchor="middle">384 dimensions</text>

  <rect x="595" y="182" width="120" height="46" fill="#0d1117" stroke="#30363d" stroke-width="1" rx="6"/>
  <text x="655" y="200" fill="#8b949e" font-size="9" text-anchor="middle">Min Score</text>
  <text x="655" y="216" fill="#e6edf3" font-size="10" text-anchor="middle" font-weight="600">cosine ≥ 0.30</text>
  <text x="655" y="228" fill="#3fb950" font-size="9" text-anchor="middle">filtered hits only</text>

  <rect x="725" y="182" width="110" height="46" fill="#0d1117" stroke="#30363d" stroke-width="1" rx="6"/>
  <text x="780" y="200" fill="#8b949e" font-size="9" text-anchor="middle">Top-K</text>
  <text x="780" y="216" fill="#e6edf3" font-size="10" text-anchor="middle" font-weight="600">6 chunks</text>
  <text x="780" y="228" fill="#58a6ff" font-size="9" text-anchor="middle">configurable</text>

  <rect x="845" y="182" width="195" height="46" fill="#0d1117" stroke="#30363d" stroke-width="1" rx="6"/>
  <text x="942" y="200" fill="#8b949e" font-size="9" text-anchor="middle">Collections</text>
  <text x="942" y="216" fill="#e6edf3" font-size="10" text-anchor="middle" font-weight="600">synapseiq_corpus</text>
  <text x="942" y="228" fill="#58a6ff" font-size="9" text-anchor="middle">persistent · upsert-safe</text>

  <!-- ══════════════════ AGENT CONTEXT BAR ══════════════════ -->
  <!-- Vertical AgentContext bar (right side) -->
  <rect x="988" y="265" width="88" height="488" fill="#21262d" stroke="#30363d" stroke-width="1.2" rx="8"/>
  <rect x="988" y="265" width="88" height="30" fill="#30363d" rx="8"/>
  <rect x="988" y="285" width="88" height="10" fill="#30363d"/>
  <text x="1032" y="284" fill="#e6edf3" font-size="9" font-weight="700" text-anchor="middle">AgentContext</text>
  <text x="1032" y="306" fill="#8b949e" font-size="8" text-anchor="middle">session_id</text>
  <text x="1032" y="320" fill="#8b949e" font-size="8" text-anchor="middle">query</text>
  <text x="1032" y="334" fill="#8b949e" font-size="8" text-anchor="middle">retrieved_chunks</text>
  <text x="1032" y="348" fill="#1f6feb" font-size="8" text-anchor="middle">research_output</text>
  <text x="1032" y="362" fill="#e36209" font-size="8" text-anchor="middle">critique_output</text>
  <text x="1032" y="376" fill="#238636" font-size="8" text-anchor="middle">synthesis_output</text>
  <text x="1032" y="390" fill="#8957e5" font-size="8" text-anchor="middle">validation_output</text>
  <line x1="1000" y1="400" x2="1068" y2="400" stroke="#30363d" stroke-width="1"/>
  <text x="1032" y="418" fill="#8b949e" font-size="8" text-anchor="middle">total_tokens</text>
  <text x="1032" y="432" fill="#8b949e" font-size="8" text-anchor="middle">elapsed_ms</text>
  <text x="1032" y="446" fill="#8b949e" font-size="8" text-anchor="middle">errors[ ]</text>
  <line x1="1000" y1="458" x2="1068" y2="458" stroke="#30363d" stroke-width="1"/>
  <text x="1032" y="476" fill="#8b949e" font-size="8" text-anchor="middle">SHARED</text>
  <text x="1032" y="490" fill="#8b949e" font-size="8" text-anchor="middle">MUTABLE</text>
  <text x="1032" y="504" fill="#8b949e" font-size="8" text-anchor="middle">STATE</text>
  <!-- Vertical label -->
  <text x="1032" y="660" fill="#30363d" font-size="9" text-anchor="middle" transform="rotate(-90, 1032, 600)" font-weight="700" letter-spacing="3">PIPELINE STATE</text>

  <!-- ══════════════════ LLM CLIENT PANEL ══════════════════ -->
  <rect x="40" y="265" width="70" height="488" fill="#1c1a0a" stroke="#9e6a03" stroke-width="1.2" rx="8"/>
  <rect x="40" y="265" width="70" height="30" fill="#2d2101" rx="8"/>
  <rect x="40" y="285" width="70" height="10" fill="#2d2101"/>
  <text x="75" y="284" fill="#f0883e" font-size="8" font-weight="700" text-anchor="middle">LLM Client</text>
  <text x="75" y="308" fill="#8b949e" font-size="7.5" text-anchor="middle">OpenAI</text>
  <text x="75" y="320" fill="#e6edf3" font-size="8" text-anchor="middle" font-weight="600">gpt-4o-mini</text>
  <line x1="52" y1="328" x2="98" y2="328" stroke="#30363d" stroke-width="0.8"/>
  <text x="75" y="342" fill="#8b949e" font-size="7.5" text-anchor="middle">Ollama</text>
  <text x="75" y="354" fill="#e6edf3" font-size="8" text-anchor="middle" font-weight="600">llama3</text>
  <line x1="52" y1="362" x2="98" y2="362" stroke="#30363d" stroke-width="0.8"/>
  <text x="75" y="376" fill="#8b949e" font-size="7.5" text-anchor="middle">temp</text>
  <text x="75" y="388" fill="#f0883e" font-size="8" text-anchor="middle" font-weight="600">0.3</text>
  <line x1="52" y1="396" x2="98" y2="396" stroke="#30363d" stroke-width="0.8"/>
  <text x="75" y="418" fill="#8b949e" font-size="7.5" text-anchor="middle">retries</text>
  <text x="75" y="430" fill="#f0883e" font-size="8" text-anchor="middle" font-weight="600">max 2</text>
  <text x="75" y="600" fill="#30363d" font-size="9" text-anchor="middle" transform="rotate(-90, 75, 560)" font-weight="700" letter-spacing="2">LLM ENGINE</text>

  <!-- Main arrow from ChromaDB down -->
  <line x1="550" y1="242" x2="550" y2="262" stroke="#58a6ff" stroke-width="2" marker-end="url(#arrow)"/>

  <!-- ══════════════════ AGENT 1: RESEARCHER ══════════════════ -->
  <rect x="120" y="265" width="855" height="88" fill="#0a1628" stroke="#1f6feb" stroke-width="1.5" rx="8" filter="url(#shadow)"/>
  <rect x="120" y="265" width="6" height="88" fill="url(#researcher-grad)" rx="4"/>

  <!-- Agent label -->
  <rect x="130" y="274" width="100" height="16" fill="#1f6feb22" stroke="#1f6feb" stroke-width="0.8" rx="8"/>
  <text x="180" y="285.5" fill="#58a6ff" font-size="8" font-weight="700" text-anchor="middle" letter-spacing="1">AGENT 01</text>

  <text x="244" y="285" fill="#8b949e" font-size="9">researcher.yaml v1.2</text>
  <text x="130" y="306" fill="#e6edf3" font-size="15" font-weight="700">ResearcherAgent</text>
  <text x="130" y="323" fill="#8b949e" font-size="10">Extracts structured findings from retrieved chunks · Identifies key concepts · Flags evidence gaps</text>

  <!-- Info boxes -->
  <rect x="130" y="334" width="95" height="12" fill="#1f6feb11" rx="3"/>
  <text x="135" y="343" fill="#58a6ff" font-size="8">Input: retrieved_chunks</text>
  <rect x="234" y="334" width="105" height="12" fill="#1f6feb11" rx="3"/>
  <text x="239" y="343" fill="#58a6ff" font-size="8">Output: core_findings[ ]</text>
  <rect x="348" y="334" width="100" height="12" fill="#1f6feb11" rx="3"/>
  <text x="353" y="343" fill="#58a6ff" font-size="8">Tokens: ≤ 2,000</text>

  <!-- Token budget indicator -->
  <rect x="580" y="276" width="200" height="66" fill="#0d1117" stroke="#30363d" stroke-width="1" rx="6"/>
  <text x="680" y="292" fill="#8b949e" font-size="8" text-anchor="middle">Token Budget</text>
  <rect x="592" y="298" width="168" height="8" fill="#30363d" rx="4"/>
  <rect x="592" y="298" width="112" height="8" fill="#1f6feb" rx="4"/>
  <text x="680" y="316" fill="#e6edf3" font-size="9" text-anchor="middle">1,200 / 2,000 tokens</text>
  <text x="680" y="330" fill="#3fb950" font-size="8" text-anchor="middle">~320ms latency</text>

  <!-- LLM call arrow from agent to LLM panel -->
  <line x1="120" y1="309" x2="110" y2="309" stroke="#f0883e" stroke-width="1" marker-end="url(#arrow-gray)" stroke-dasharray="3,2"/>
  <!-- Context write arrow -->
  <line x1="975" y1="309" x2="988" y2="309" stroke="#1f6feb" stroke-width="1" marker-end="url(#arrow-gray)" stroke-dasharray="3,2"/>

  <!-- Arrow to next agent -->
  <line x1="550" y1="353" x2="550" y2="373" stroke="#58a6ff" stroke-width="2" marker-end="url(#arrow)"/>

  <!-- ══════════════════ AGENT 2: CRITIC ══════════════════ -->
  <rect x="120" y="375" width="855" height="88" fill="#1a0d00" stroke="#e36209" stroke-width="1.5" rx="8" filter="url(#shadow)"/>
  <rect x="120" y="375" width="6" height="88" fill="url(#critic-grad)" rx="4"/>

  <rect x="130" y="384" width="100" height="16" fill="#e3620922" stroke="#e36209" stroke-width="0.8" rx="8"/>
  <text x="180" y="395.5" fill="#f0883e" font-size="8" font-weight="700" text-anchor="middle" letter-spacing="1">AGENT 02</text>

  <text x="244" y="395" fill="#8b949e" font-size="9">critic.yaml v1.1</text>
  <text x="130" y="416" fill="#e6edf3" font-size="15" font-weight="700">CriticAgent</text>
  <text x="130" y="433" fill="#8b949e" font-size="10">Adversarial peer review · Identifies gaps, biases, contradictions · Severity rating: LOW/MED/HIGH/CRITICAL</text>

  <rect x="130" y="444" width="95" height="12" fill="#e3620911" rx="3"/>
  <text x="135" y="453" fill="#f0883e" font-size="8">Input: research_output</text>
  <rect x="234" y="444" width="105" height="12" fill="#e3620911" rx="3"/>
  <text x="239" y="453" fill="#f0883e" font-size="8">Output: issues[ ] + score</text>
  <rect x="348" y="444" width="100" height="12" fill="#e3620911" rx="3"/>
  <text x="353" y="453" fill="#f0883e" font-size="8">Tokens: ≤ 1,400</text>

  <rect x="580" y="386" width="200" height="66" fill="#0d1117" stroke="#30363d" stroke-width="1" rx="6"/>
  <text x="680" y="402" fill="#8b949e" font-size="8" text-anchor="middle">Token Budget</text>
  <rect x="592" y="408" width="168" height="8" fill="#30363d" rx="4"/>
  <rect x="592" y="408" width="84" height="8" fill="#e36209" rx="4"/>
  <text x="680" y="426" fill="#e6edf3" font-size="9" text-anchor="middle">820 / 1,400 tokens</text>
  <text x="680" y="440" fill="#3fb950" font-size="8" text-anchor="middle">~240ms latency</text>

  <line x1="120" y1="419" x2="110" y2="419" stroke="#f0883e" stroke-width="1" marker-end="url(#arrow-gray)" stroke-dasharray="3,2"/>
  <line x1="975" y1="419" x2="988" y2="419" stroke="#e36209" stroke-width="1" marker-end="url(#arrow-gray)" stroke-dasharray="3,2"/>

  <line x1="550" y1="463" x2="550" y2="483" stroke="#58a6ff" stroke-width="2" marker-end="url(#arrow)"/>

  <!-- ══════════════════ AGENT 3: SYNTHESIZER ══════════════════ -->
  <rect x="120" y="485" width="855" height="88" fill="#051a05" stroke="#238636" stroke-width="1.5" rx="8" filter="url(#shadow)"/>
  <rect x="120" y="485" width="6" height="88" fill="url(#synth-grad)" rx="4"/>

  <rect x="130" y="494" width="100" height="16" fill="#23863622" stroke="#238636" stroke-width="0.8" rx="8"/>
  <text x="180" y="505.5" fill="#3fb950" font-size="8" font-weight="700" text-anchor="middle" letter-spacing="1">AGENT 03</text>

  <text x="244" y="505" fill="#8b949e" font-size="9">synthesizer.yaml v1.3</text>
  <text x="130" y="526" fill="#e6edf3" font-size="15" font-weight="700">SynthesizerAgent</text>
  <text x="130" y="543" fill="#8b949e" font-size="10">Generates final knowledge artifact · Format-adaptive (brief/standard/detailed) · Inline citation support</text>

  <rect x="130" y="554" width="95" height="12" fill="#23863611" rx="3"/>
  <text x="135" y="563" fill="#3fb950" font-size="8">Input: research + critique</text>
  <rect x="234" y="554" width="115" height="12" fill="#23863611" rx="3"/>
  <text x="239" y="563" fill="#3fb950" font-size="8">Output: synthesis doc sections</text>
  <rect x="358" y="554" width="100" height="12" fill="#23863611" rx="3"/>
  <text x="363" y="563" fill="#3fb950" font-size="8">Tokens: ≤ 3,000</text>

  <rect x="580" y="496" width="200" height="66" fill="#0d1117" stroke="#30363d" stroke-width="1" rx="6"/>
  <text x="680" y="512" fill="#8b949e" font-size="8" text-anchor="middle">Token Budget</text>
  <rect x="592" y="518" width="168" height="8" fill="#30363d" rx="4"/>
  <rect x="592" y="518" width="140" height="8" fill="#238636" rx="4"/>
  <text x="680" y="536" fill="#e6edf3" font-size="9" text-anchor="middle">2,100 / 3,000 tokens</text>
  <text x="680" y="550" fill="#3fb950" font-size="8" text-anchor="middle">~680ms latency</text>

  <line x1="120" y1="529" x2="110" y2="529" stroke="#f0883e" stroke-width="1" marker-end="url(#arrow-gray)" stroke-dasharray="3,2"/>
  <line x1="975" y1="529" x2="988" y2="529" stroke="#238636" stroke-width="1" marker-end="url(#arrow-gray)" stroke-dasharray="3,2"/>

  <line x1="550" y1="573" x2="550" y2="593" stroke="#58a6ff" stroke-width="2" marker-end="url(#arrow)"/>

  <!-- ══════════════════ AGENT 4: VALIDATOR ══════════════════ -->
  <rect x="120" y="595" width="855" height="88" fill="#130d1e" stroke="#8957e5" stroke-width="1.5" rx="8" filter="url(#shadow)"/>
  <rect x="120" y="595" width="6" height="88" fill="url(#validator-grad)" rx="4"/>

  <rect x="130" y="604" width="100" height="16" fill="#8957e522" stroke="#8957e5" stroke-width="0.8" rx="8"/>
  <text x="180" y="615.5" fill="#a371f7" font-size="8" font-weight="700" text-anchor="middle" letter-spacing="1">AGENT 04</text>

  <text x="244" y="615" fill="#8b949e" font-size="9">validator.yaml v1.0</text>
  <text x="130" y="636" fill="#e6edf3" font-size="15" font-weight="700">ValidatorAgent</text>
  <text x="130" y="653" fill="#8b949e" font-size="10">Quality gate · Rubric scoring (4 dimensions) · Fabrication flagging · PASS / CONDITIONAL / FAIL verdict</text>

  <rect x="130" y="664" width="100" height="12" fill="#8957e511" rx="3"/>
  <text x="135" y="673" fill="#a371f7" font-size="8">Input: synthesis_output</text>
  <rect x="239" y="664" width="115" height="12" fill="#8957e511" rx="3"/>
  <text x="244" y="673" fill="#a371f7" font-size="8">Output: scores + verdict</text>
  <rect x="363" y="664" width="100" height="12" fill="#8957e511" rx="3"/>
  <text x="368" y="673" fill="#a371f7" font-size="8">Tokens: ≤ 1,000</text>

  <rect x="580" y="606" width="200" height="66" fill="#0d1117" stroke="#30363d" stroke-width="1" rx="6"/>
  <text x="680" y="622" fill="#8b949e" font-size="8" text-anchor="middle">Token Budget</text>
  <rect x="592" y="628" width="168" height="8" fill="#30363d" rx="4"/>
  <rect x="592" y="628" width="60" height="8" fill="#8957e5" rx="4"/>
  <text x="680" y="646" fill="#e6edf3" font-size="9" text-anchor="middle">580 / 1,000 tokens</text>
  <text x="680" y="660" fill="#3fb950" font-size="8" text-anchor="middle">~190ms latency</text>

  <line x1="120" y1="639" x2="110" y2="639" stroke="#f0883e" stroke-width="1" marker-end="url(#arrow-gray)" stroke-dasharray="3,2"/>
  <line x1="975" y1="639" x2="988" y2="639" stroke="#8957e5" stroke-width="1" marker-end="url(#arrow-gray)" stroke-dasharray="3,2"/>

  <line x1="550" y1="683" x2="550" y2="703" stroke="#58a6ff" stroke-width="2" marker-end="url(#arrow)"/>

  <!-- ══════════════════ EVALUATOR ══════════════════ -->
  <rect x="120" y="705" width="855" height="80" fill="#160a0a" stroke="#da3633" stroke-width="1.5" rx="8" filter="url(#shadow)"/>
  <rect x="120" y="705" width="6" height="80" fill="url(#eval-grad)" rx="4"/>
  <text x="130" y="728" fill="#f85149" font-size="10" font-weight="700" letter-spacing="1">PIPELINE EVALUATOR</text>
  <text x="130" y="746" fill="#e6edf3" font-size="12">Composite Score  =  Σ ( score_i × weight_i )</text>

  <!-- Score boxes -->
  <rect x="130" y="756" width="130" height="22" fill="#1f6feb22" stroke="#1f6feb" stroke-width="0.8" rx="4"/>
  <text x="136" y="771" fill="#58a6ff" font-size="9" font-weight="600">Coherence</text>
  <text x="240" y="771" fill="#58a6ff" font-size="9" text-anchor="end">w=0.30</text>

  <rect x="270" y="756" width="130" height="22" fill="#3fb95022" stroke="#3fb950" stroke-width="0.8" rx="4"/>
  <text x="276" y="771" fill="#3fb950" font-size="9" font-weight="600">Relevance</text>
  <text x="380" y="771" fill="#3fb950" font-size="9" text-anchor="end">w=0.35</text>

  <rect x="410" y="756" width="130" height="22" fill="#f0883e22" stroke="#f0883e" stroke-width="0.8" rx="4"/>
  <text x="416" y="771" fill="#f0883e" font-size="9" font-weight="600">Factuality</text>
  <text x="520" y="771" fill="#f0883e" font-size="9" text-anchor="end">w=0.25</text>

  <rect x="550" y="756" width="135" height="22" fill="#a371f722" stroke="#a371f7" stroke-width="0.8" rx="4"/>
  <text x="556" y="771" fill="#a371f7" font-size="9" font-weight="600">Completeness</text>
  <text x="675" y="771" fill="#a371f7" font-size="9" text-anchor="end">w=0.10</text>

  <!-- SQLite trace indicator -->
  <rect x="720" y="716" width="240" height="62" fill="#0d1117" stroke="#30363d" stroke-width="1" rx="6"/>
  <text x="840" y="732" fill="#8b949e" font-size="8" text-anchor="middle">SQLite Analytics DB</text>
  <text x="840" y="746" fill="#e6edf3" font-size="9" text-anchor="middle" font-weight="600">pipeline_sessions · agent_traces</text>
  <text x="840" y="760" fill="#58a6ff" font-size="8" text-anchor="middle">latency · tokens · cost · verdict</text>
  <text x="840" y="772" fill="#3fb950" font-size="8" text-anchor="middle">full audit trail per session</text>

  <line x1="550" y1="785" x2="550" y2="805" stroke="#3fb950" stroke-width="2" marker-end="url(#arrow-green)"/>

  <!-- ══════════════════ OUTPUT ══════════════════ -->
  <!-- PASS verdict -->
  <rect x="120" y="808" width="400" height="82" fill="#051a05" stroke="#3fb950" stroke-width="2" rx="8" filter="url(#shadow)"/>
  <text x="140" y="830" fill="#3fb950" font-size="11" font-weight="700">✓  PASS  —  composite ≥ 0.65</text>
  <text x="140" y="848" fill="#8b949e" font-size="10">Synthesis document delivered with</text>
  <text x="140" y="862" fill="#8b949e" font-size="10">full evaluation scorecard</text>
  <text x="140" y="878" fill="#e6edf3" font-size="9">sections · sources · agent_traces · cost</text>

  <!-- CONDITIONAL -->
  <rect x="535" y="808" width="230" height="82" fill="#1a1200" stroke="#e3b341" stroke-width="1.5" rx="8" filter="url(#shadow)"/>
  <text x="555" y="830" fill="#e3b341" font-size="11" font-weight="700">⚠  CONDITIONAL</text>
  <text x="555" y="848" fill="#8b949e" font-size="10">composite 0.45 – 0.65</text>
  <text x="555" y="863" fill="#8b949e" font-size="10">Delivered with quality flags</text>
  <text x="555" y="878" fill="#e3b341" font-size="9">Review recommended</text>

  <!-- FAIL -->
  <rect x="780" y="808" width="195" height="82" fill="#160a0a" stroke="#da3633" stroke-width="1.5" rx="8" filter="url(#shadow)"/>
  <text x="800" y="830" fill="#f85149" font-size="11" font-weight="700">✗  FAIL</text>
  <text x="800" y="848" fill="#8b949e" font-size="10">composite &lt; 0.45</text>
  <text x="800" y="863" fill="#8b949e" font-size="10">Retry recommended</text>
  <text x="800" y="878" fill="#f85149" font-size="9">Check corpus coverage</text>

  <!-- ══════════════════ FOOTER ══════════════════ -->
  <line x1="40" y1="962" x2="1060" y2="962" stroke="#21262d" stroke-width="1"/>
  <text x="550" y="978" fill="#30363d" font-size="9" text-anchor="middle" letter-spacing="1">SYNAPSEIQ MULTI-AGENT PIPELINE  ·  RETRIEVAL-AUGMENTED GENERATION  ·  LLM ORCHESTRATION</text>
  <text x="550" y="993" fill="#21262d" font-size="8" text-anchor="middle">FastAPI · ChromaDB · sentence-transformers · OpenAI / Ollama · SQLite · Jinja2 + YAML Prompts</text>

  <!-- Connector labels -->
  <text x="535" y="258" fill="#8b949e" font-size="8" text-anchor="middle">retrieved chunks (top-6)</text>
  <text x="535" y="370" fill="#8b949e" font-size="8" text-anchor="middle">research_output → AgentContext</text>
  <text x="535" y="480" fill="#8b949e" font-size="8" text-anchor="middle">critique_output → AgentContext</text>
  <text x="535" y="590" fill="#8b949e" font-size="8" text-anchor="middle">synthesis_output → AgentContext</text>
  <text x="535" y="700" fill="#8b949e" font-size="8" text-anchor="middle">validation_output → composite_score</text>
  <text x="535" y="802" fill="#3fb950" font-size="8" text-anchor="middle">verdict → output delivery</text>
</svg>
